PathFileType	4	(X/Y/Z)	34_2_29_p1_0-506.trc
DataRate	CameraRate	NumFrames	NumMarkers	Units	OrigDataRate	OrigDataStartFrame	OrigNumFrames
53.0	53.0	5	27	m	53.0	126	507
Frame#	Time	RHip			RKnee			RAnkle			RBigToe			RSmallToe			RHeel			LHip			LKnee			LAnkle			LBigToe			LSmallToe			LHeel			Neck			Head			Nose			RShoulder			RElbow			RWrist			RThumb			RIndex			RPinky			LShoulder			LElbow			LWrist			LThumb			LIndex			LPinky			
		X1	Y1	Z1	X2	Y2	Z2	X3	Y3	Z3	X4	Y4	Z4	X5	Y5	Z5	X6	Y6	Z6	X7	Y7	Z7	X8	Y8	Z8	X9	Y9	Z9	X10	Y10	Z10	X11	Y11	Z11	X12	Y12	Z12	X13	Y13	Z13	X14	Y14	Z14	X15	Y15	Z15	X16	Y16	Z16	X17	Y17	Z17	X18	Y18	Z18	X19	Y19	Z19	X20	Y20	Z20	X21	Y21	Z21	X22	Y22	Z22	X23	Y23	Z23	X24	Y24	Z24	X25	Y25	Z25	X26	Y26	Z26	X27	Y27	Z27	
126	2.3773584905660377	0.3920074614190459	0.5560550537358503	0.9778847174746513	0.40560897292604814	0.6587980911762871	1.3789168818311994	0.3817490861732761	0.7712276684359001	1.741809124661834	0.34637979203342234	0.591518885180252	1.7822256409978487	0.4098698315056049	0.6019210970510255	1.787009555574312	0.3478568089974894	0.8818677688346137	1.795692252487702	0.15419173001052738	0.5535775837502352	0.9839609080505358	0.16436817759471872	0.6423474534919483	1.3771295706209137	0.16964636140352488	0.7495603576204001	1.7298774497720002	0.19514260316961377	0.5554315029471429	1.7679489472871819	0.13829598600737414	0.5979145622926203	1.7802016978224995	0.18480375541576247	0.8302296429440242	1.7935657526610256	0.2769329899752318	0.4134564357775405	0.4428952081037955	0.2844158138184129	0.26028207076319143	0.1988540602246515	0.2884733079148885	0.23338159940063632	0.3635045273587553	0.4468494564341957	0.4208527728840653	0.4978956397458096	0.5285067821790692	0.42119947028299987	0.733167522898187	0.3611790464516028	0.34356811975724083	0.8862706308835389	0.26562052541207753	0.3244355507972286	0.9380402808059194	0.25408752351444597	0.336488886870866	0.9535165041932041	0.2671027839755811	0.3427748784901077	0.9697357115328664	0.11930793813399496	0.4049253667955519	0.5017258251257494	0.04140506369699945	0.4759419474797015	0.7618037418318732	0.21453446541610688	0.3131790332462636	0.8777663391416299	0.3265818242229935	0.2721025314643494	0.9018424897733399	0.32886991985107594	0.274943215355925	0.928953841058291	0.27535317214275845	0.34547512934117985	0.9709767381497023
127	2.3962264150943398	0.3924430794872019	0.554888100915609	0.9739200696732211	0.40560399882823966	0.6586018526535052	1.3788929379555868	0.38181560632755385	0.771084882277999	1.7416719288668736	0.34639309826947257	0.5912477944881844	1.7821631899428299	0.40974754957109455	0.6005808687486762	1.7864217902448594	0.3480324625879165	0.8818187504076523	1.7955003218755732	0.1549331701136997	0.5527150914853863	0.9800132043130894	0.16770459569488194	0.6414601471629754	1.3718980326179382	0.1752324862528446	0.7500181907335082	1.725529498455248	0.19513717747258463	0.5552763306487388	1.767802778181621	0.13933333606556841	0.596182395259239	1.7763647217205967	0.18481429938913038	0.8298816808616916	1.7934316047401115	0.27696983778230455	0.413428047782179	0.4428258298882604	0.2843736516876276	0.26007864403627473	0.19885406235301742	0.2884557878514598	0.2333514041868743	0.36355823474025684	0.4468773981150634	0.4208611804635165	0.49789448027978317	0.5285189008959419	0.4211972975883793	0.7331227906005944	0.35792643316783546	0.3324947569100357	0.8852177872884052	0.26443322161936084	0.3229743177666083	0.937814380210493	0.257217658504627	0.3382463804329762	0.9572602541508481	0.2666744734164365	0.3403542264673583	0.9651879475748621	0.11914670848749469	0.4054070388024955	0.4977617718137916	0.04093073575745269	0.47433932837805814	0.7537656897473155	0.21444819533067	0.3126432399718431	0.8776015155053509	0.3219937186797964	0.28347701163832906	0.895512771314639	0.3311579368603025	0.2862723256947772	0.9298032060670558	0.2747540254353801	0.3436039146713486	0.9673222776011207
128	2.4150943396226414	0.3924758330556448	0.5548399783163981	0.9738742609430333	0.4052820763534764	0.6597848103259272	1.375185396360146	0.3817766357082543	0.771270246010727	1.7417789221506073	0.34623932180697564	0.5914315813765363	1.7820472272325747	0.4094612637419078	0.6009642613533959	1.7864865610612934	0.3480008808863902	0.8823912218982367	1.795793744880895	0.15497734345914554	0.5527332824053284	0.9798203591834143	0.16365088716330753	0.6392667494109496	1.3715931706563993	0.17516724760705157	0.7498925018750965	1.725290901223229	0.19509424399685138	0.5551634971743014	1.7678297581316875	0.1393579490793328	0.5958929772943957	1.7763125446620245	0.1844118652342224	0.8312845872712925	1.789381343909175	0.276965110037774	0.41333649861387584	0.442764361348272	0.28440247718896217	0.26021961861261583	0.198866095191733	0.288411370075809	0.23346567333991292	0.3635323385257456	0.44313433574348365	0.4092577619788074	0.49838689065010405	0.5285436567233305	0.421163215436964	0.7330410884969151	0.35787734581624286	0.33217083193783337	0.8850973480316214	0.27246083726778575	0.3366922431187006	0.9390629619116099	0.26225743276230673	0.32566663836342086	0.9516826763410863	0.26688401027318837	0.3402210571780675	0.9652240732439799	0.11886734819643517	0.40328017636902447	0.4943743692209785	0.04091678991020053	0.4745335945648696	0.7536488660003179	0.21022551557535574	0.3257938504073512	0.8791025325509972	0.32279442537474273	0.28501492890544106	0.9030123576047814	0.3285977036596519	0.27502822574286045	0.9285704329992427	0.27469724098439374	0.3432386778891054	0.9672838479828387
129	2.4339622641509435	0.3930176773931846	0.5535207482114476	0.9703640827515009	0.4056867480294214	0.6584567641769177	1.37896873212566	0.38181146407373573	0.7710784499475389	1.7417087920325112	0.3462807498404604	0.5915664935505371	1.782284376511156	0.40967002584733214	0.6010266143760947	1.7866178164558046	0.3480255196517107	0.8821356327244306	1.7957062444360614	0.15501391854262322	0.5526228148961863	0.9796966192762293	0.1677093439882562	0.6411380020472947	1.3717439705411527	0.1752176529089741	0.7499974357049005	1.7253033284995634	0.19503379948307703	0.5552473454333041	1.7677731468606506	0.1392146588982656	0.5963835155088768	1.7763758510151917	0.18450007744620095	0.8312825884865261	1.789351532803886	0.2769656788996874	0.41329316353548246	0.4427763816350103	0.28440432305954	0.26000621876220775	0.19885837651178326	0.2884027001336566	0.23339241599057367	0.3635640538775508	0.4431484408763586	0.4091923894488494	0.4983492451579044	0.5285718652064538	0.42114325428538163	0.7330519231158478	0.3577733578350676	0.3320942468046836	0.8850713379616121	0.2692674585176203	0.33643233846140974	0.9396766808618504	0.25350127491473773	0.33789041124185354	0.9545287868043594	0.26667289409489076	0.3399207546809002	0.965353231582825	0.11888996182028598	0.40334433990249324	0.4943501709015512	0.04091889998444288	0.47468527811142347	0.7535742328749765	0.20998921685067082	0.32555346481764813	0.8789509572875871	0.3258143017184965	0.2725766906513269	0.8970123366422975	0.32847069500701415	0.2741514071179492	0.928312679955099	0.27461588176089885	0.34307289722692763	0.9669591172651625
130	2.452830188679245	0.3966321496827818	0.5403538770778656	0.9723588850117542	0.40527161487148333	0.6600812317103858	1.375187849398679	0.38176066181389934	0.7709687420551993	1.7417132172628755	0.3463199467135016	0.5915696750133611	1.7822477465223416	0.4097682515493187	0.6015612776985476	1.7868509242691355	0.34793656936687867	0.8816381214924474	1.7955264170906287	0.154905398895447	0.552481493088303	0.9798916555332943	0.16770962754274396	0.641531055994662	1.3717285043570957	0.17529195714723828	0.7499445484266171	1.7255079121864199	0.19499647571903977	0.5553946331326632	1.767971214383121	0.13866462439600108	0.598276908918727	1.772357049933744	0.18457512169521584	0.8310961485232716	1.7892927646275447	0.27694928521449674	0.4133982557534796	0.4427405387740238	0.2844099767802064	0.26007079034189823	0.19884088110586187	0.2884569457168761	0.2333784461309344	0.3635576919750042	0.44316225967164813	0.4091528731608018	0.4983043091320496	0.5286408768683903	0.42115425435400994	0.7330013843776165	0.3572787452230572	0.3299227525383632	0.8815309401741473	0.2660814804877814	0.33389723493706625	0.936720604332479	0.2534357650314303	0.3366040571688424	0.950930184357903	0.26633810196275476	0.33975401254105664	0.9658983141828794	0.12155971857166217	0.4154673977274956	0.49358713688680106	0.04143261393450064	0.4734433080077973	0.7499746226434075	0.212768646699219	0.3374929306648504	0.8799160846634742	0.3260609855169475	0.27234327982472684	0.900887936324795	0.3321825415316593	0.26246898691703974	0.9238326800541203	0.27460420281446557	0.3431940164247086	0.9668399395242852
